<svg version="1.1" id="Capa_1" xmlns="http://www.w3.org/2000/svg" x="0" y="0" viewBox="0 0 58 58" style="enable-background:new 0 0 58 58" xml:space="preserve"><style>.st1{fill:#fff}</style><linearGradient id="SVGID_1_" gradientUnits="userSpaceOnUse" x1="28.789" y1="3.685" x2="28.789" y2="57.673" gradientTransform="matrix(1 0 0 -1 0 60)"><stop offset="0" style="stop-color:#20b038"/><stop offset="1" style="stop-color:#60d66a"/></linearGradient><path d="M45.1 12.8C40.7 8.4 35 6 28.8 6c-12.7 0-23 10.3-23 23 0 4.4 1.2 8.6 3.5 12.3l.5.9-2.3 8.5 8.7-2.3.8.5c3.5 2.1 7.6 3.2 11.7 3.2 12.7 0 23-10.3 23-23 .1-6.2-2.3-12-6.6-16.3z" style="fill:url(#SVGID_1_)"/><path class="st1" d="M48.4 9.5c-5.2-5.2-12.2-8.1-19.6-8.1-15.3 0-27.7 12.4-27.7 27.7 0 4.9 1.3 9.7 3.7 13.9l-4 14.3 14.7-3.9c4 2.2 8.6 3.4 13.2 3.4 15.3 0 27.7-12.4 27.7-27.7.1-7.4-2.8-14.4-8-19.6zM28.8 52.1c-4.1 0-8.2-1.1-11.7-3.2l-.8-.5-8.7 2.3 2.3-8.5-.5-.9C7 37.7 5.7 33.4 5.7 29.1c0-12.7 10.3-23 23-23 6.2 0 11.9 2.4 16.3 6.8s6.7 10.1 6.7 16.3c.1 12.6-10.2 22.9-22.9 22.9z"/><path class="st1" d="M41.4 34.9c-.7-.3-4.1-2-4.7-2.3-.6-.2-1.1-.3-1.6.3-.5.7-1.8 2.3-2.2 2.7-.4.5-.8.5-1.5.2s-2.9-1.1-5.6-3.4c-2.1-1.8-3.4-4.1-3.9-4.8-.4-.7 0-1.1.3-1.4.3-.3.7-.8 1-1.2.3-.4.5-.7.7-1.2.2-.5.1-.9-.1-1.2-.2-.3-1.5-3.8-2.1-5.1-.5-1.2-1.1-1.2-1.6-1.2h-1.3c-.5 0-1.2.2-1.8.9-.6.7-2.4 2.4-2.4 5.8s2.5 6.7 2.8 7.2c.3.5 4.8 7.7 11.8 10.5 5.9 2.3 7 1.8 8.3 1.7 1.3-.1 4.1-1.7 4.7-3.3.6-1.6.6-3 .4-3.3 0-.4-.5-.6-1.2-.9z"/></svg>