<?xml version="1.0" encoding="utf-8"?>
<!-- Generator: Adobe Illustrator 26.0.0, SVG Export Plug-In . SVG Version: 6.00 Build 0)  -->
<svg version="1.1" id="Capa_1" xmlns="http://www.w3.org/2000/svg" xmlns:xlink="http://www.w3.org/1999/xlink" x="0px" y="0px"
	 viewBox="0 0 150 50" style="enable-background:new 0 0 150 50;" xml:space="preserve">
<style type="text/css">
	.st0{fill:#3D3D3D;}
	.st1{fill:#00A7C0;}
	.st2{fill:#5B5A5A;stroke:#E0040B;stroke-width:0.25;stroke-miterlimit:10;}
	.st3{fill:#001D54;}
	.st4{fill:#02182F;}
	.st5{fill:#F3F8FA;}
	.st6{fill:#021930;}
	.st7{fill:#181818;}
	.st8{fill:#FFFFFF;}
	.st9{opacity:0.4;fill:#6E8291;}
</style>
<g>
	<g>
		<path class="st7" d="M12.46,39.39h2.47c1.38,0,2.47,0.43,3.29,1.3c0.81,0.86,1.22,2.11,1.22,3.73c0,1.64-0.4,2.89-1.19,3.77
			c-0.79,0.88-1.93,1.32-3.4,1.32h-2.39V39.39z M14.71,41.21v6.45h0.26c0.45,0,0.91-0.18,1.39-0.53s0.72-1.21,0.72-2.55
			c0-0.99-0.09-1.7-0.27-2.12s-0.44-0.73-0.79-0.94s-0.71-0.31-1.07-0.31H14.71z"/>
		<path class="st7" d="M24.64,39.39h2.23v10.12h-2.23V39.39z"/>
		<path class="st7" d="M36.95,42.24c-0.59-0.67-1.15-1.01-1.69-1.01c-0.24,0-0.46,0.08-0.65,0.24c-0.19,0.16-0.29,0.33-0.29,0.53
			c0,0.35,0.3,0.77,0.9,1.25c0.63,0.49,1.08,0.88,1.34,1.16c0.26,0.28,0.48,0.62,0.64,1c0.16,0.38,0.24,0.8,0.24,1.26
			c0,0.89-0.29,1.62-0.87,2.19c-0.58,0.57-1.33,0.86-2.24,0.86c-0.75,0-1.48-0.26-2.2-0.79v-2.39c0.69,0.73,1.38,1.1,2.07,1.1
			c0.31,0,0.57-0.08,0.77-0.25c0.21-0.17,0.31-0.37,0.31-0.62c0-0.36-0.26-0.76-0.79-1.21c-0.84-0.71-1.4-1.24-1.66-1.59
			c-0.26-0.35-0.46-0.7-0.59-1.05c-0.13-0.35-0.19-0.71-0.19-1.07c0-0.78,0.28-1.42,0.83-1.93s1.26-0.76,2.12-0.76
			c0.65,0,1.3,0.18,1.95,0.55V42.24z"/>
		<path class="st7" d="M48.03,41.35h-2.01v8.16h-2.23v-8.14h-2.05v-1.98h6.29V41.35z"/>
		<path class="st7" d="M59.18,49.51h-2.27l-1.79-5h-0.03v5h-2.23V39.39h2.9c0.58,0,1.16,0.11,1.73,0.34s0.99,0.58,1.23,1.06
			c0.25,0.48,0.37,0.98,0.37,1.5c0,0.63-0.14,1.14-0.41,1.54c-0.28,0.4-0.72,0.77-1.32,1.1L59.18,49.51z M55.08,43.94
			c0.72,0,1.18-0.14,1.37-0.42s0.29-0.63,0.29-1.06c0-0.97-0.4-1.45-1.21-1.45h-0.45V43.94z"/>
		<path class="st7" d="M64.28,39.39h2.23v10.12h-2.23V39.39z"/>
		<path class="st7" d="M76.94,44.41c0.6,0.27,1.02,0.6,1.26,1c0.24,0.39,0.36,0.91,0.36,1.55c0,0.72-0.26,1.32-0.79,1.81
			s-1.17,0.74-1.94,0.74h-3.69V39.39h3.17c0.89,0,1.62,0.24,2.2,0.72s0.86,1.1,0.86,1.84c0,0.6-0.11,1.1-0.34,1.47
			C77.8,43.81,77.44,44.14,76.94,44.41z M74.38,43.67h0.46c0.38,0,0.68-0.12,0.9-0.35c0.22-0.24,0.34-0.55,0.34-0.94
			c0-0.91-0.47-1.36-1.4-1.36h-0.29V43.67z M74.38,47.86l0.65-0.02c0.38-0.01,0.68-0.12,0.89-0.35s0.32-0.55,0.32-0.96
			c0-0.89-0.46-1.34-1.39-1.34h-0.46V47.86z"/>
		<path class="st7" d="M89.98,46.66c0,0.95-0.29,1.7-0.87,2.24c-0.58,0.54-1.39,0.81-2.42,0.81c-1.07,0-1.89-0.28-2.47-0.83
			c-0.58-0.56-0.86-1.35-0.86-2.39v-7.09h2.25v6.75c0,0.48,0.1,0.84,0.29,1.1c0.19,0.26,0.46,0.38,0.8,0.38
			c0.32,0,0.57-0.12,0.76-0.37c0.18-0.25,0.28-0.58,0.28-1v-6.85h2.26V46.66z"/>
		<path class="st7" d="M95.45,39.39h2.23v10.12h-2.23V39.39z"/>
		<path class="st7" d="M103.25,39.39h2.47c1.38,0,2.47,0.43,3.29,1.3c0.81,0.86,1.22,2.11,1.22,3.73c0,1.64-0.4,2.89-1.19,3.77
			c-0.79,0.88-1.93,1.32-3.4,1.32h-2.39V39.39z M105.5,41.21v6.45h0.26c0.45,0,0.91-0.18,1.39-0.53c0.48-0.36,0.72-1.21,0.72-2.55
			c0-0.99-0.09-1.7-0.27-2.12s-0.44-0.73-0.79-0.94s-0.71-0.31-1.07-0.31H105.5z"/>
		<path class="st7" d="M114.99,44.4c0-1.42,0.16-2.46,0.47-3.13c0.31-0.66,0.73-1.18,1.25-1.55s1.18-0.55,1.97-0.55
			c0.66,0,1.18,0.11,1.59,0.32c0.4,0.21,0.78,0.52,1.12,0.93c0.34,0.41,0.6,0.91,0.76,1.51c0.16,0.6,0.24,1.4,0.24,2.39
			c0,2.04-0.35,3.44-1.04,4.21c-0.69,0.78-1.59,1.16-2.68,1.16c-1.12,0-2.01-0.4-2.68-1.2C115.32,47.71,114.99,46.34,114.99,44.4z
			 M117.34,43.78v0.65c0,1.06,0.04,1.76,0.11,2.1c0.07,0.34,0.22,0.6,0.46,0.8s0.51,0.29,0.84,0.29c0.26,0,0.51-0.09,0.73-0.28
			c0.22-0.19,0.37-0.48,0.46-0.86c0.09-0.39,0.13-1.07,0.13-2.06c0-0.89-0.04-1.52-0.11-1.89s-0.22-0.68-0.45-0.91
			c-0.23-0.23-0.5-0.35-0.83-0.35c-0.47,0-0.82,0.2-1.02,0.6C117.45,42.27,117.34,42.91,117.34,43.78z"/>
		<path class="st7" d="M133.86,49.51h-2.27l-1.79-5h-0.03v5h-2.23V39.39h2.9c0.58,0,1.16,0.11,1.73,0.34
			c0.58,0.23,0.99,0.58,1.23,1.06c0.25,0.48,0.37,0.98,0.37,1.5c0,0.63-0.14,1.14-0.41,1.54c-0.28,0.4-0.72,0.77-1.32,1.1
			L133.86,49.51z M129.76,43.94c0.72,0,1.18-0.14,1.37-0.42c0.19-0.28,0.29-0.63,0.29-1.06c0-0.97-0.4-1.45-1.21-1.45h-0.45V43.94z"
			/>
		<path class="st7" d="M145.93,49.51h-2.18l-0.34-1.58h-2.72l-0.38,1.58h-2.18l2.95-10.12h2.26L145.93,49.51z M143.09,46.29
			l-0.91-4.42l-0.03,0l-1.05,4.43H143.09z"/>
	</g>
	<g id="A_00000065775500204805557390000015772381099003592623_">
		<path class="st3" d="M119.46,27.24l-2.52,5.88h3.28c1.8,0,3.39-0.9,3.93-2.22l0.59-1.44l0.92-2.46
			C123.64,27.28,121.58,27.34,119.46,27.24z"/>
		<path class="st3" d="M127.24,22.8l3.85-10.29l0,0l0.37-11.97h-0.56l-9.61,22.32C123.26,22.96,125.25,22.95,127.24,22.8z"/>
		<path class="st3" d="M134.84,22.24l0.59,1.53l2.2,5.7l0.59,1.44c0.54,1.32,2.13,2.22,3.93,2.22h3.85l-5.62-12.59l-0.18-0.41
			l-8.73-19.58l0,0l-0.06,0.08l-0.47,11.83L134.84,22.24z"/>
	</g>
	<g id="E_00000171693981812752762300000015568946065319849148_">
		<path class="st3" d="M19.11,6.67h10.36c2.28,0,4.12-1.42,4.12-3.18V0.83H12.57v15.98c2.19-0.24,4.37-0.58,6.54-1V6.67z"/>
		<path class="st3" d="M12.57,20.09v13.03h21.68v-2.67c0-1.75-1.84-3.18-4.12-3.18H19.11v-4.65v-2.85
			C16.91,19.98,14.72,20.09,12.57,20.09z"/>
	</g>
	<g id="m_00000106123962515743647930000014810241484012284338_">
		<path class="st3" d="M57.28,17.88l-0.19,9.21h0.04l6.31-7.17c1.49-1.71,3.41-4.56,3.41-4.56s-0.23,3.47-0.23,5.65v8.93
			c0,1.76,1.85,3.18,4.13,3.18h2.18V11.76c-2.85-0.63-5.93-1.06-9.32-1.16L57.28,17.88z"/>
		<path class="st3" d="M72.93,0.49h-0.56l-3.58,4.24c1.69,0.17,2.6,0.32,4.14,0.63V0.49z"/>
	</g>
	<g id="M_00000155844993201137750590000003209353498485269144_">
		<path class="st3" d="M105.86,29.95c0,1.75,1.84,3.17,4.11,3.17h2.2v-6.69c-2.01-0.32-4.1-0.71-6.31-1.14V29.95z"/>
		<path class="st3" d="M112.17,15.4V0.49l-0.31,0.73l-5.76,13.45c0,0-0.23,3.37-0.23,5.56c1.9,0.6,4.02,1.16,6.31,1.62V15.4z"/>
	</g>
	<path id="sombra_00000129193320784040779040000008793603930905093282_" class="st6" d="M119.46,27.24l-0.34,0.79
		c1.47,0.21,5.29,0,6.22-0.17l0.32-0.86C123.13,27.29,120.76,27.29,119.46,27.24z"/>
	<path id="sombra_00000031929931823391852640000015858984048099629446_" class="st6" d="M12.57,20.09v0.95
		c1.93,0.05,4.25-0.12,6.54-0.4v-0.86C19.11,19.78,14.43,20.14,12.57,20.09z"/>
	<path id="sombra_00000139975840571972237850000006935316091663586477_" class="st6" d="M105.86,25.29l0,0.7
		c1.41,0.43,4.48,1.02,6.31,1.14l0-0.7C110.17,26.09,107.13,25.53,105.86,25.29z"/>
	<path id="sombra_00000124859652894730945740000000336980856462393530_" class="st6" d="M63.61,10.59l-0.71,0.82
		c3.61,0.06,7.09,0.51,10.03,1.35v-1.02C67.97,10.68,66.16,10.65,63.61,10.59z"/>
	<g id="wave_00000147189307002022293970000014431138927547066261_">
		<path class="st1" d="M142.6,18.74c-0.78,0.51-1.58,0.96-2.4,1.38l0.18,0.41C141.11,19.97,141.85,19.38,142.6,18.74z"/>
		<path class="st1" d="M134.84,22.24c-2.58,0.75-5.25,1.19-7.91,1.38c-1.99,0.14-3.98,0.15-5.94,0.05
			c-3.07-0.15-6.05-0.57-8.82-1.13c-2.28-0.46-4.41-1.02-6.31-1.62c-0.11-0.04-0.24-0.07-0.35-0.11
			C95.38,17.08,86.85,8.98,72.93,6.17c-1.55-0.31-3.16-0.56-4.85-0.73c-4.66-0.46-9.89-0.32-15.9,0.69
			c-8.72,1.2-21.15,8.29-33.06,10.59c-2.17,0.42-4.35,0.76-6.54,1C7.31,18.3,3.88,18.4,1.85,17.68c2.46,1.2,5.12,2.41,10.72,2.42
			c2.15,0,4.34-0.11,6.54-0.31c10.93-1,23.26-6.73,32.19-8.28c4.53-0.76,8.6-1.02,12.31-0.91c3.39,0.1,6.47,0.53,9.32,1.16
			c13.87,3.09,22.01,11.31,31.91,13.33c0.35,0.07,0.69,0.13,1.03,0.2c2.21,0.43,4.3,0.82,6.31,1.14c2.55,0.41,4.96,0.71,7.29,0.81
			c2.12,0.1,4.18,0.04,6.2-0.24c3.27-0.44,6.47-1.45,9.77-3.24L134.84,22.24z"/>
	</g>
	<path id="m_00000113321236071646527210000016770503310100284296_" class="st3" d="M57.14,27.09h-0.61l-6.31-7.17
		c-1.49-1.71-3.41-4.56-3.41-4.56s0.23,3.47,0.23,5.65v8.93c0,1.76-1.85,3.18-4.13,3.18h-2.13V0.49h0.51l16.01,17.41L57.14,27.09z"
		/>
	<path id="M_00000016060083332712786890000005861944825616672395_" class="st3" d="M106.1,15.36c0,0-1.54,2.29-2.93,3.99
		c-0.16,0.2-0.32,0.39-0.48,0.57l-6.31,7.17h-0.61l-6.31-7.17c-1.49-1.71-3.41-4.56-3.41-4.56s0.23,3.47,0.23,5.65v8.94
		c0,1.75-1.84,3.17-4.11,3.17h-2.15V0.49h0.51l15.65,17.48l2.13-2.42l13.28-15.06h0.56L106.1,15.36z"/>
</g>
<polygon id="parche_00000092418882038155910920000013182262659389934729_" class="st3" points="130.51,12.6 131.34,12.72 
	131.58,0.8 131.47,0.54 131.28,0.6 "/>
<polygon id="parche_00000042733960386745017160000013426132729136424355_" class="st3" points="57.45,26.62 57.16,27.11 
	56.58,26.99 56.99,17.9 57.61,17.9 "/>
<polygon class="st3" points="106.24,15.47 105.34,15.36 111.82,0.73 112.17,0.49 112.17,0.87 "/>
</svg>
