<?xml version="1.0" encoding="utf-8"?>
<!-- Generator: Adobe Illustrator 26.0.0, SVG Export Plug-In . SVG Version: 6.00 Build 0)  -->
<svg version="1.1" id="Capa_1" xmlns="http://www.w3.org/2000/svg" xmlns:xlink="http://www.w3.org/1999/xlink" x="0px" y="0px"
	 viewBox="0 0 150 50" style="enable-background:new 0 0 150 50;" xml:space="preserve">
<style type="text/css">
	.st0{fill:#3D3D3D;}
	.st1{fill:#00A7C0;}
	.st2{fill:#5B5A5A;stroke:#E0040B;stroke-width:0.25;stroke-miterlimit:10;}
	.st3{fill:#001D54;}
	.st4{fill:#02182F;}
	.st5{fill:#F3F8FA;}
	.st6{fill:#021930;}
	.st7{fill:#FFFFFF;}
	.st8{opacity:0.4;fill:#6E8291;}
</style>
<g>
	<g>
		<path class="st5" d="M12.43,39.39h2.47c1.38,0,2.47,0.43,3.29,1.3c0.81,0.86,1.22,2.11,1.22,3.73c0,1.64-0.4,2.89-1.19,3.77
			c-0.79,0.88-1.93,1.32-3.4,1.32h-2.39V39.39z M14.69,41.21v6.45h0.26c0.45,0,0.91-0.18,1.39-0.53c0.48-0.36,0.72-1.21,0.72-2.55
			c0-0.99-0.09-1.7-0.27-2.12s-0.44-0.73-0.79-0.94c-0.35-0.21-0.71-0.31-1.07-0.31H14.69z"/>
		<path class="st5" d="M24.62,39.39h2.23v10.12h-2.23V39.39z"/>
		<path class="st5" d="M36.92,42.24c-0.59-0.67-1.15-1.01-1.69-1.01c-0.24,0-0.46,0.08-0.65,0.24c-0.19,0.16-0.29,0.33-0.29,0.53
			c0,0.35,0.3,0.77,0.9,1.25c0.63,0.49,1.08,0.88,1.34,1.16c0.26,0.28,0.48,0.62,0.64,1c0.16,0.38,0.24,0.8,0.24,1.26
			c0,0.89-0.29,1.62-0.87,2.19c-0.58,0.57-1.33,0.86-2.24,0.86c-0.75,0-1.48-0.26-2.2-0.79v-2.39c0.69,0.73,1.38,1.1,2.07,1.1
			c0.31,0,0.57-0.08,0.77-0.25c0.21-0.17,0.31-0.37,0.31-0.62c0-0.36-0.26-0.76-0.79-1.21c-0.84-0.71-1.4-1.24-1.66-1.59
			c-0.26-0.35-0.46-0.7-0.59-1.05c-0.13-0.35-0.19-0.71-0.19-1.07c0-0.78,0.28-1.42,0.83-1.93s1.26-0.76,2.12-0.76
			c0.65,0,1.3,0.18,1.95,0.55V42.24z"/>
		<path class="st5" d="M48.01,41.35H46v8.16h-2.23v-8.14h-2.05v-1.98h6.29V41.35z"/>
		<path class="st5" d="M59.15,49.51h-2.27l-1.79-5h-0.03v5h-2.23V39.39h2.9c0.58,0,1.16,0.11,1.73,0.34s0.99,0.58,1.23,1.06
			c0.25,0.48,0.37,0.98,0.37,1.5c0,0.63-0.14,1.14-0.41,1.54c-0.28,0.4-0.72,0.77-1.32,1.1L59.15,49.51z M55.05,43.94
			c0.72,0,1.18-0.14,1.37-0.42s0.29-0.63,0.29-1.06c0-0.97-0.4-1.45-1.21-1.45h-0.45V43.94z"/>
		<path class="st5" d="M64.26,39.39h2.23v10.12h-2.23V39.39z"/>
		<path class="st5" d="M76.91,44.41c0.6,0.27,1.02,0.6,1.26,1c0.24,0.39,0.36,0.91,0.36,1.55c0,0.72-0.26,1.32-0.79,1.81
			s-1.17,0.74-1.94,0.74h-3.69V39.39h3.17c0.89,0,1.62,0.24,2.2,0.72s0.86,1.1,0.86,1.84c0,0.6-0.11,1.1-0.34,1.47
			C77.77,43.81,77.41,44.14,76.91,44.41z M74.35,43.67h0.46c0.38,0,0.68-0.12,0.9-0.35c0.22-0.24,0.34-0.55,0.34-0.94
			c0-0.91-0.47-1.36-1.4-1.36h-0.29V43.67z M74.35,47.86L75,47.85c0.38-0.01,0.68-0.12,0.89-0.35s0.32-0.55,0.32-0.96
			c0-0.89-0.46-1.34-1.39-1.34h-0.46V47.86z"/>
		<path class="st5" d="M89.95,46.66c0,0.95-0.29,1.7-0.87,2.24c-0.58,0.54-1.39,0.81-2.42,0.81c-1.07,0-1.89-0.28-2.47-0.83
			c-0.58-0.56-0.86-1.35-0.86-2.39v-7.09h2.25v6.75c0,0.48,0.1,0.84,0.29,1.1c0.19,0.26,0.46,0.38,0.8,0.38
			c0.32,0,0.57-0.12,0.76-0.37c0.18-0.25,0.28-0.58,0.28-1v-6.85h2.26V46.66z"/>
		<path class="st5" d="M95.42,39.39h2.23v10.12h-2.23V39.39z"/>
		<path class="st5" d="M103.22,39.39h2.47c1.38,0,2.47,0.43,3.29,1.3c0.81,0.86,1.22,2.11,1.22,3.73c0,1.64-0.4,2.89-1.19,3.77
			c-0.79,0.88-1.93,1.32-3.4,1.32h-2.39V39.39z M105.48,41.21v6.45h0.26c0.45,0,0.91-0.18,1.39-0.53c0.48-0.36,0.72-1.21,0.72-2.55
			c0-0.99-0.09-1.7-0.27-2.12s-0.44-0.73-0.79-0.94s-0.71-0.31-1.07-0.31H105.48z"/>
		<path class="st5" d="M114.96,44.4c0-1.42,0.16-2.46,0.47-3.13c0.31-0.66,0.73-1.18,1.25-1.55s1.18-0.55,1.97-0.55
			c0.66,0,1.18,0.11,1.59,0.32c0.4,0.21,0.78,0.52,1.12,0.93c0.34,0.41,0.6,0.91,0.76,1.51c0.16,0.6,0.24,1.4,0.24,2.39
			c0,2.04-0.35,3.44-1.04,4.21c-0.69,0.78-1.59,1.16-2.68,1.16c-1.12,0-2.01-0.4-2.68-1.2C115.29,47.71,114.96,46.34,114.96,44.4z
			 M117.32,43.78v0.65c0,1.06,0.04,1.76,0.11,2.1c0.07,0.34,0.22,0.6,0.46,0.8s0.51,0.29,0.84,0.29c0.26,0,0.51-0.09,0.73-0.28
			c0.22-0.19,0.37-0.48,0.46-0.86c0.09-0.39,0.13-1.07,0.13-2.06c0-0.89-0.04-1.52-0.11-1.89s-0.22-0.68-0.45-0.91
			c-0.23-0.23-0.5-0.35-0.83-0.35c-0.47,0-0.82,0.2-1.02,0.6C117.42,42.27,117.32,42.91,117.32,43.78z"/>
		<path class="st5" d="M133.83,49.51h-2.27l-1.79-5h-0.03v5h-2.23V39.39h2.9c0.58,0,1.16,0.11,1.73,0.34
			c0.58,0.23,0.99,0.58,1.23,1.06c0.25,0.48,0.37,0.98,0.37,1.5c0,0.63-0.14,1.14-0.41,1.54c-0.28,0.4-0.72,0.77-1.32,1.1
			L133.83,49.51z M129.73,43.94c0.72,0,1.18-0.14,1.37-0.42c0.19-0.28,0.29-0.63,0.29-1.06c0-0.97-0.4-1.45-1.21-1.45h-0.45V43.94z"
			/>
		<path class="st5" d="M145.9,49.51h-2.18l-0.34-1.58h-2.72l-0.38,1.58h-2.18l2.95-10.12h2.26L145.9,49.51z M143.06,46.29
			l-0.91-4.42l-0.03,0l-1.05,4.43H143.06z"/>
	</g>
	<g id="A_00000153668181578740612850000015902288030077229486_">
		<path class="st7" d="M119.43,27.24l-2.52,5.88h3.28c1.8,0,3.39-0.9,3.93-2.22l0.59-1.44l0.92-2.46
			C123.61,27.28,121.55,27.34,119.43,27.24z"/>
		<path class="st7" d="M127.21,22.8l3.85-10.29l0,0l0.37-11.97h-0.56l-9.61,22.32C123.23,22.96,125.22,22.95,127.21,22.8z"/>
		<path class="st7" d="M134.82,22.24l0.59,1.53l2.2,5.7l0.59,1.44c0.54,1.32,2.13,2.22,3.93,2.22h3.85l-5.62-12.59l-0.18-0.41
			l-8.73-19.58l0,0l-0.39,11.97"/>
	</g>
	<g id="E_00000093165254481827164470000011247225243227406744_">
		<path class="st7" d="M19.08,6.67h10.36c2.28,0,4.12-1.42,4.12-3.18V0.83H12.54v15.98c2.19-0.24,4.37-0.58,6.54-1V6.67z"/>
		<path class="st7" d="M12.54,20.09v13.03h21.68v-2.67c0-1.75-1.84-3.18-4.12-3.18H19.08v-4.65v-2.85
			C16.88,19.98,14.69,20.09,12.54,20.09z"/>
	</g>
	<g id="m_00000127764372389388692040000007538627260041578655_">
		<path class="st7" d="M57.26,17.88l-0.15,9.21l6.31-7.17c1.49-1.71,3.41-4.56,3.41-4.56s-0.23,3.47-0.23,5.65v8.93
			c0,1.76,1.85,3.18,4.13,3.18h2.18V11.76c-2.85-0.63-5.93-1.06-9.32-1.16L57.26,17.88z"/>
		<path class="st7" d="M72.9,0.49h-0.56l-3.58,4.24c1.69,0.17,2.6,0.32,4.14,0.63V0.49z"/>
	</g>
	<g id="M_00000114063424514329518070000008541096906290928567_">
		<path class="st7" d="M105.84,29.95c0,1.75,1.84,3.17,4.11,3.17h2.2v-6.69c-2.01-0.32-4.1-0.71-6.31-1.14V29.95z"/>
		<path class="st7" d="M112.14,15.4V0.49l-6.07,14.18c0,0-0.23,3.37-0.23,5.56c1.9,0.6,4.02,1.16,6.31,1.62V15.4z"/>
	</g>
	<path id="sombra_00000011012419875581355560000005470250247316793987_" class="st8" d="M119.43,27.24l-0.34,0.79
		c1.47,0.21,5.29,0,6.22-0.17l0.32-0.86C123.1,27.29,120.74,27.29,119.43,27.24z"/>
	<path id="sombra_00000060011885202422760910000004092465795949783681_" class="st8" d="M12.54,20.09v0.95
		c1.93,0.05,4.25-0.12,6.54-0.4v-0.86C19.08,19.78,14.41,20.14,12.54,20.09z"/>
	<path id="sombra_00000173851947150475690630000003960857905003814546_" class="st8" d="M105.84,25.29l0,0.7
		c1.41,0.43,4.48,1.02,6.31,1.14l0-0.7C110.14,26.09,107.1,25.53,105.84,25.29z"/>
	<path id="sombra_00000148619405447129548370000002819453654232290446_" class="st8" d="M63.58,10.59l-0.71,0.82
		c3.61,0.06,7.09,0.51,10.03,1.35v-1.02C67.94,10.68,66.13,10.65,63.58,10.59z"/>
	<g id="wave_00000041282888796165715460000013175831541449112988_">
		<path class="st1" d="M142.57,18.74c-0.78,0.51-1.58,0.96-2.4,1.38l0.18,0.41C141.08,19.97,141.82,19.38,142.57,18.74z"/>
		<path class="st1" d="M134.82,22.24c-2.58,0.75-5.25,1.19-7.91,1.38c-1.99,0.14-3.98,0.15-5.94,0.05
			c-3.07-0.15-6.05-0.57-8.82-1.13c-2.28-0.46-4.41-1.02-6.31-1.62c-0.11-0.04-0.24-0.07-0.35-0.11
			C95.35,17.08,86.82,8.98,72.9,6.17c-1.55-0.31-3.16-0.56-4.85-0.73c-4.66-0.46-9.89-0.32-15.9,0.69
			c-8.72,1.2-21.15,8.29-33.06,10.59c-2.17,0.42-4.35,0.76-6.54,1C7.28,18.3,3.85,18.4,1.82,17.68c2.46,1.2,5.12,2.41,10.72,2.42
			c2.15,0,4.34-0.11,6.54-0.31c10.93-1,23.26-6.73,32.19-8.28c4.53-0.76,8.6-1.02,12.31-0.91c3.39,0.1,6.47,0.53,9.32,1.16
			c13.87,3.09,22.01,11.31,31.91,13.33c0.35,0.07,0.69,0.13,1.03,0.2c2.21,0.43,4.3,0.82,6.31,1.14c2.55,0.41,4.96,0.71,7.29,0.81
			c2.12,0.1,4.18,0.04,6.2-0.24c3.27-0.44,6.47-1.45,9.77-3.24L134.82,22.24z"/>
	</g>
	<path id="m_00000048471294609434109820000009508788503831560605_" class="st7" d="M57.11,27.09H56.5l-6.31-7.17
		c-1.49-1.71-3.41-4.56-3.41-4.56s0.23,3.47,0.23,5.65v8.93c0,1.76-1.85,3.18-4.13,3.18h-2.13V0.49h0.51l15.98,17.39L57.11,27.09z"
		/>
	<path id="M_00000080176428668553699690000008397951008431085720_" class="st7" d="M106.07,15.36c0,0-1.54,2.29-2.93,3.99
		c-0.16,0.2-0.32,0.39-0.48,0.57l-6.31,7.17h-0.61l-6.31-7.17c-1.49-1.71-3.41-4.56-3.41-4.56s0.23,3.47,0.23,5.65v8.94
		c0,1.75-1.84,3.17-4.11,3.17H80V0.49h0.51l15.65,17.48l2.13-2.42l13.28-15.06h0.56L106.07,15.36z"/>
</g>
</svg>
